<?xml version="1.0" encoding="UTF-8" standalone="no"?>
<!DOCTYPE svg PUBLIC "-//W3C//DTD SVG 1.1//EN" "http://www.w3.org/Graphics/SVG/1.1/DTD/svg11.dtd">
<svg width="100%" height="100%" viewBox="0 0 1500 570" version="1.1" xmlns="http://www.w3.org/2000/svg" xmlns:xlink="http://www.w3.org/1999/xlink" xml:space="preserve" xmlns:serif="http://www.serif.com/" style="fill-rule:evenodd;clip-rule:evenodd;stroke-linejoin:round;stroke-miterlimit:2;">
    <g id="Liberty" transform="matrix(1.96185,0,0,2.07502,-725.886,-649.051)">
        <g transform="matrix(1,0,0,1,370,369.689)">
            <path d="M0,217.518L0,62.828C0,62.828 38.022,23.602 181.032,0L181.032,137.43C181.032,150.295 163.386,162.185 134.733,168.534C88.1,178.867 20.236,196.845 0,217.518" style="fill:rgb(150,150,229);fill-rule:nonzero;"/>
        </g>
        <g transform="matrix(1,0,0,1,370,339.074)">
            <path d="M0,248.133L0,71.672C0,71.672 28.656,26.924 136.438,0L136.438,156.773C136.438,171.449 123.139,185.013 101.544,192.255C66.398,204.042 15.251,224.55 0,248.133" style="fill:rgb(78,77,207);fill-rule:nonzero;"/>
        </g>
        <g transform="matrix(1,0,0,1,370,312.793)">
            <path d="M0,274.414L0,79.263C0,79.263 18.732,29.776 89.188,0L89.188,173.378C89.188,189.608 80.495,204.608 66.378,212.618C43.404,225.653 9.969,248.333 0,274.414" style="fill:rgb(45,41,229);fill-rule:nonzero;"/>
        </g>
        <g transform="matrix(1,0,0,1,618.043,484.716)">
            <path d="M0,-96.053L15.78,-96.053L15.78,-13.996L70.393,-13.996L70.393,0L0,0L0,-96.053Z" style="fill-rule:nonzero;"/>
        </g>
        <g transform="matrix(1,0,0,1,0,-29.502)">
            <path d="M701.189,443.962L716.146,443.962L716.146,514.218L701.189,514.218L701.189,443.962ZM699.68,424.339C699.68,419.4 703.796,415.284 708.597,415.284C713.674,415.284 717.655,419.4 717.655,424.339C717.655,429.279 713.674,433.395 708.597,433.395C703.796,433.395 699.68,429.279 699.68,424.339" style="fill-rule:nonzero;"/>
        </g>
        <g transform="matrix(1,0,0,1,788.732,422.144)">
            <path d="M0,27.444C0,14.272 -10.018,4.116 -22.916,4.116C-30.6,4.116 -37.186,7.135 -41.714,12.212L-41.714,42.812C-37.324,47.753 -30.463,50.772 -22.916,50.772C-9.88,50.772 0,40.754 0,27.444M-56.671,-33.481L-41.714,-36.226L-41.714,-1.372C-35.952,-6.175 -28.816,-8.782 -20.72,-8.782C-0.824,-8.782 14.819,7.135 14.819,27.444C14.819,47.753 -0.96,63.67 -21.132,63.67C-28.68,63.67 -35.952,61.201 -41.852,56.809L-41.852,62.572L-56.671,62.572L-56.671,-33.481Z" style="fill-rule:nonzero;"/>
        </g>
        <g transform="matrix(1,0,0,1,867.761,455.763)">
            <path d="M0,-12.35C-2.058,-22.504 -10.018,-29.914 -19.622,-29.914C-29.778,-29.914 -37.735,-22.779 -39.658,-12.35L0,-12.35ZM-54.888,-6.175C-54.888,-26.484 -39.245,-42.539 -19.349,-42.539C0.136,-42.539 14.819,-26.347 14.819,-5.353L14.819,-1.236L-39.658,-1.236C-37.598,9.604 -28.542,17.426 -17.153,17.426C-10.429,17.426 -4.117,15.368 0.136,11.526L9.742,20.72C1.509,27.306 -6.999,30.189 -17.839,30.189C-38.56,30.189 -54.888,14.407 -54.888,-6.175" style="fill-rule:nonzero;"/>
        </g>
        <g transform="matrix(1,0,0,1,895.197,483.069)">
            <path d="M0,-68.609L14.957,-68.609L14.957,-59.827C19.347,-66.413 25.933,-70.256 34.166,-70.256C37.322,-70.118 39.38,-69.845 41.303,-68.883L41.303,-55.573C38.696,-56.671 35.813,-57.22 32.794,-57.22C24.973,-57.22 18.524,-52.83 14.957,-45.008L14.957,1.647L0,1.647L0,-68.609Z" style="fill-rule:nonzero;"/>
        </g>
        <g transform="matrix(1,0,0,1,956.526,412.264)">
            <path d="M0,54.477L0,14.821L-14.821,14.821L-14.821,2.196L0,2.196L0,-15.779L14.957,-19.211L14.957,2.196L35.402,2.196L35.402,14.821L14.957,14.821L14.957,51.183C14.957,58.182 17.702,60.789 25.11,60.789C28.816,60.789 31.561,60.376 35.128,59.142L35.128,71.766C31.285,73.001 25.797,73.688 21.681,73.688C7.546,73.688 0,67.1 0,54.477" style="fill-rule:nonzero;"/>
        </g>
        <g transform="matrix(1,0,0,1,1000.98,415.284)">
            <path d="M0,98.11L0,85.076C1.785,85.487 3.568,85.625 6.175,85.625C12.625,85.625 17.29,82.331 20.171,75.469L22.641,69.706L-5.352,-0.824L11.252,-0.824L31.012,51.319L52.83,-0.824L69.02,-0.824L35.539,77.392C28.816,92.897 20.994,98.934 7.548,98.934C4.528,98.934 1.785,98.659 0,98.11" style="fill-rule:nonzero;"/>
        </g>
        <g transform="matrix(1,0,0,1,-1587.42,-5.048)">
            <circle cx="2712" cy="481" r="10"/>
        </g>
    </g>
</svg>
